<svg width="18.000000" height="18.000000" viewBox="0 0 18 18" fill="none" xmlns="http://www.w3.org/2000/svg" xmlns:xlink="http://www.w3.org/1999/xlink">
	<desc>
			Created with Pixso.
	</desc>
	<defs>
		<clipPath id="clip12_257">
			<rect id="heart" width="18.000000" height="18.000000" fill="white" fill-opacity="0"/>
		</clipPath>
	</defs>
	<rect id="heart" width="18.000000" height="18.000000" fill="#FFFFFF" fill-opacity="0"/>
	<g clip-path="url(#clip12_257)">
		<path id="Vector" d="M15.63 3.45749C15.2469 3.07425 14.7921 2.77023 14.2915 2.56281C13.7909 2.35538 13.2543 2.24863 12.7125 2.24863C12.1707 2.24863 11.634 2.35538 11.1334 2.56281C10.6328 2.77023 10.178 3.07425 9.79492 3.45749L9 4.2525L8.20496 3.45749C7.43115 2.68372 6.38171 2.24902 5.28748 2.24902C4.19324 2.24902 3.14368 2.68372 2.37 3.45749C1.59619 4.23126 1.1615 5.28073 1.1615 6.375C1.1615 7.46927 1.59619 8.51874 2.37 9.29248L3.16492 10.0875L9 15.9225L14.835 10.0875L15.63 9.29248C16.0132 8.90942 16.3173 8.45462 16.5247 7.95401C16.7321 7.45343 16.8389 6.91687 16.8389 6.375C16.8389 5.83313 16.7321 5.29657 16.5247 4.79599C16.3173 4.29538 16.0132 3.84058 15.63 3.45749Z" fill="#3470FF" fill-opacity="1.000000" fill-rule="nonzero"/>
		<path id="Vector" d="M14.2915 2.56281C13.7909 2.35538 13.2543 2.24863 12.7125 2.24863C12.1707 2.24863 11.634 2.35538 11.1334 2.56281C10.6328 2.77023 10.178 3.07425 9.79492 3.45749L9 4.2525L8.20496 3.45749C7.43115 2.68372 6.38171 2.24902 5.28748 2.24902C4.19324 2.24902 3.14368 2.68372 2.37 3.45749C1.59619 4.23126 1.1615 5.28073 1.1615 6.375C1.1615 7.46927 1.59619 8.51874 2.37 9.29248L3.16492 10.0875L9 15.9225L14.835 10.0875L15.63 9.29248C16.0132 8.90942 16.3173 8.45462 16.5247 7.95401C16.7321 7.45343 16.8389 6.91687 16.8389 6.375C16.8389 5.83313 16.7321 5.29657 16.5247 4.79599C16.3173 4.29538 16.0132 3.84058 15.63 3.45749C15.2469 3.07425 14.7921 2.77023 14.2915 2.56281Z" stroke="#3470FF" stroke-opacity="1.000000" stroke-width="1.500000" stroke-linejoin="round"/>
	</g>
</svg>
